# xmcd CD database file
#
# Track frame offsets:
#	150
#	29030
#	47875
#	61710
#	77487
#	92067
#	108247
#	129822
#	150165
#	161115
#	175782
#	189470
#	217645
#
# Disc length: 4440 seconds
#
# Revision: 0
# Processed by: cddbd v1.5PL3 Copyright (c) Steve Scherf et al.
# Submitted via: CDex 1.51
#
DISCID=9511560d
DTITLE=SION - ALIVE ON ARRIVAL
DYEAR=2003
DGENRE=Rock
TTITLE0=キャスト
TTITLE1=お前はどこだ
TTITLE2=はじめまして
TTITLE3=低い空
TTITLE4=ガラクタ
TTITLE5=日の当たる場所へ
TTITLE6=程遠く
TTITLE7=ある休日
TTITLE8=11月の空に
TTITLE9=すばらしい世界を
TTITLE10=お前が好き
TTITLE11=ここからさ
TTITLE12=CCCDにつきもののアレ
EXTD=YEAR: 2003
EXTT0=
EXTT1=
EXTT2=
EXTT3=
EXTT4=
EXTT5=
EXTT6=
EXTT7=
EXTT8=
EXTT9=
EXTT10=
EXTT11=
EXTT12=
PLAYORDER=
